<?xml version="1.0" encoding="UTF-8" standalone="no"?>
<!-- Created with Inkscape (http://www.inkscape.org/) -->

<svg
   width="40"
   height="40"
   viewBox="0 0 10.583333 10.583333"
   version="1.1"
   id="svg1"
   inkscape:export-filename="Finder.png"
   inkscape:export-xdpi="96"
   inkscape:export-ydpi="96"
   xmlns:inkscape="http://www.inkscape.org/namespaces/inkscape"
   xmlns:sodipodi="http://sodipodi.sourceforge.net/DTD/sodipodi-0.dtd"
   xmlns="http://www.w3.org/2000/svg"
   xmlns:svg="http://www.w3.org/2000/svg">
  <sodipodi:namedview
     id="namedview1"
     pagecolor="#ffffff"
     bordercolor="#000000"
     borderopacity="0.25"
     inkscape:showpageshadow="2"
     inkscape:pageopacity="0.0"
     inkscape:pagecheckerboard="0"
     inkscape:deskcolor="#d1d1d1"
     inkscape:document-units="mm" />
  <defs
     id="defs1" />
  <g
     inkscape:label="Calque 1"
     inkscape:groupmode="layer"
     id="layer1">
    <g
       id="g31"
       transform="matrix(1.0968084,0,0,1.0968084,-95.643895,-174.6541)"
       inkscape:label="Finder">
      <rect
         style="display:inline;opacity:0;fill:#ffffff;stroke:none;stroke-width:0.485354;stroke-linecap:round;stroke-linejoin:round;stroke-dashoffset:3.2519"
         id="rect36"
         width="9.649209"
         height="9.649209"
         x="87.202011"
         y="159.23848"
         inkscape:label="Size" />
      <path
         id="path32"
         style="display:inline;opacity:1;fill:#5e6365;fill-opacity:1;stroke:none;stroke-width:0.55;stroke-linecap:round;stroke-linejoin:miter;stroke-dasharray:none;stroke-dashoffset:3.2519;stroke-opacity:1"
         d="m 90.99703,160.00005 c -1.656512,0.002 -2.998277,1.34538 -2.997233,3.00189 9.61e-4,1.65671 1.344658,2.99902 3.001367,2.99826 0.509424,-0.003 1.009696,-0.13566 1.453658,-0.3855 l -0.0021,0.002 2.391278,2.62103 c 0.31831,0.34889 1.708142,-1.09958 1.391953,-1.38873 l -2.618444,-2.3945 -0.0052,0.005 c 0.251583,-0.4456 0.385002,-0.94815 0.387573,-1.45986 v -0.004 c -0.0021,-1.65651 -1.346407,-2.99781 -3.002917,-2.9962 z"
         inkscape:label="Glass"
         sodipodi:nodetypes="cccccssccsscc" />
      <path
         style="display:inline;opacity:1;fill:#fdfdfd;fill-opacity:1;stroke:none;stroke-width:1.74428;stroke-linecap:round;stroke-linejoin:miter;stroke-dasharray:none;stroke-dashoffset:3.2519;stroke-opacity:1"
         id="path31"
         sodipodi:type="arc"
         sodipodi:cx="91"
         sodipodi:cy="163"
         sodipodi:rx="2.25"
         sodipodi:ry="2.25"
         sodipodi:start="0"
         sodipodi:end="6.2819597"
         sodipodi:open="true"
         sodipodi:arc-type="arc"
         d="m 93.25,163 a 2.25,2.25 0 0 1 -2.249311,2.25 2.25,2.25 0 0 1 -2.250689,-2.24862 2.25,2.25 0 0 1 2.247932,-2.25138 2.25,2.25 0 0 1 2.252066,2.24724"
         inkscape:label="Contour" />
      <path
         style="display:inline;opacity:1;fill:#4892bc;fill-opacity:1;stroke:none;stroke-width:0.582031;stroke-linecap:round;stroke-linejoin:miter;stroke-dasharray:none;stroke-dashoffset:3.2519;stroke-opacity:1"
         id="path30"
         sodipodi:type="arc"
         sodipodi:cx="91"
         sodipodi:cy="163"
         sodipodi:rx="2"
         sodipodi:ry="2"
         sodipodi:start="0"
         sodipodi:end="6.2819597"
         sodipodi:open="true"
         sodipodi:arc-type="arc"
         d="M 93,163 A 2,2 0 0 1 91.000613,165 2,2 0 0 1 89,163.00123 2,2 0 0 1 90.998162,161 a 2,2 0 0 1 2.001836,1.99755"
         inkscape:label="Glass" />
    </g>
  </g>
</svg>
