<?xml version="1.0" encoding="UTF-8" standalone="no"?>
<!-- Created with Inkscape (http://www.inkscape.org/) -->

<svg
   width="40"
   height="40"
   viewBox="0 0 10.583333 10.583333"
   version="1.1"
   id="svg1"
   inkscape:export-filename="SystemBrowser.svg"
   inkscape:export-xdpi="96"
   inkscape:export-ydpi="96"
   xmlns:inkscape="http://www.inkscape.org/namespaces/inkscape"
   xmlns:sodipodi="http://sodipodi.sourceforge.net/DTD/sodipodi-0.dtd"
   xmlns="http://www.w3.org/2000/svg"
   xmlns:svg="http://www.w3.org/2000/svg">
  <sodipodi:namedview
     id="namedview1"
     pagecolor="#ffffff"
     bordercolor="#000000"
     borderopacity="0.25"
     inkscape:showpageshadow="2"
     inkscape:pageopacity="0.0"
     inkscape:pagecheckerboard="0"
     inkscape:deskcolor="#d1d1d1"
     inkscape:document-units="mm" />
  <defs
     id="defs1" />
  <g
     inkscape:label="Calque 1"
     inkscape:groupmode="layer"
     id="layer1">
    <g
       id="g13"
       style="display:inline"
       transform="matrix(1.090588,0,0,1.1103089,-97.755733,-141.82253)"
       inkscape:label="GitRepository">
      <rect
         style="display:inline;opacity:0;fill:#ffffff;stroke:none;stroke-width:0.502999;stroke-linecap:round;stroke-linejoin:round;stroke-dashoffset:3.2519"
         id="rect19"
         width="10"
         height="10"
         x="89.385429"
         y="127.30896"
         inkscape:label="Size"
         transform="matrix(0.97042448,0,0,0.95318818,2.8939926,6.3830982)" />
      <path
         style="display:inline;opacity:1;fill:#644b37;fill-opacity:1;stroke-width:0.502999;stroke-linecap:round;stroke-linejoin:round;stroke-dashoffset:3.2519"
         d="m 98.5,130.5 -0.1,3.76377 -3.5,2.33623 v -4.3 z"
         id="path13"
         sodipodi:nodetypes="ccccc"
         inkscape:label="RightBox" />
      <path
         style="display:inline;opacity:1;fill:#b58240;fill-opacity:1;stroke-width:0.502999;stroke-linecap:round;stroke-linejoin:round;stroke-dashoffset:3.2519"
         d="m 90.6,130.1 0.1,3.9 4.2,2.6 v -4.3 z"
         id="path12"
         sodipodi:nodetypes="ccccc"
         inkscape:label="LeftBox" />
      <path
         style="display:inline;opacity:1;fill:#c8a578;fill-opacity:1;stroke-width:0.502999;stroke-linecap:round;stroke-linejoin:round;stroke-dashoffset:3.2519"
         d="m 94.2,128.4 -3.6,1.7 4.3,2.2 3.6,-1.8 z"
         id="path11"
         sodipodi:nodetypes="ccccc"
         inkscape:label="TopBox" />
      <path
         id="path14"
         style="display:inline;opacity:1;fill:#fdfdfd;fill-opacity:1;stroke-width:0.502999;stroke-linecap:round;stroke-linejoin:round;stroke-dashoffset:3.2519"
         inkscape:label="SideLines"
         d="m 90.950004,130.75016 0.05013,3.04994 0.679029,0.39946 -0.03824,-3.07888 z m 7.299813,0.2496 c -0.0019,0 -2.949691,1.60041 -2.949691,1.60041 v 0.79996 l 2.923336,-1.59991 z m -6.203182,0.36536 0.03307,3.09387 0.849561,0.49971 -0.01757,-3.12953 z m 1.321309,0.6816 0.01189,3.1533 1.020093,0.59996 v -3.19981 z m 4.842599,0.154 -2.910417,1.59938 v 0.79995 l 2.885612,-1.63762 z m -0.03669,1.12448 -2.873727,1.67483 v 0.79995 l 2.849955,-1.74976 z"
         sodipodi:nodetypes="cccccccccccccccccccccccccccccc" />
      <path
         style="opacity:1;fill:#644b37;fill-opacity:1;stroke-width:0.502999;stroke-linecap:round;stroke-linejoin:round;stroke-dashoffset:3.2519"
         d="m 92.535,131.089 3.621,-1.734 0.389,0.19 -3.58,1.766 z"
         id="path16"
         sodipodi:nodetypes="ccccc"
         inkscape:label="TopLine" />
    </g>
  </g>
</svg>
