<?xml version="1.0" encoding="UTF-8" standalone="no"?>
<!-- Created with Inkscape (http://www.inkscape.org/) -->

<svg
   width="40"
   height="39.999996"
   viewBox="0 0 10.583333 10.583332"
   version="1.1"
   id="svg1"
   inkscape:export-filename="SendersOfIt.png"
   inkscape:export-xdpi="96"
   inkscape:export-ydpi="96"
   xmlns:inkscape="http://www.inkscape.org/namespaces/inkscape"
   xmlns:sodipodi="http://sodipodi.sourceforge.net/DTD/sodipodi-0.dtd"
   xmlns="http://www.w3.org/2000/svg"
   xmlns:svg="http://www.w3.org/2000/svg">
  <sodipodi:namedview
     id="namedview1"
     pagecolor="#ffffff"
     bordercolor="#000000"
     borderopacity="0.25"
     inkscape:showpageshadow="2"
     inkscape:pageopacity="0.0"
     inkscape:pagecheckerboard="0"
     inkscape:deskcolor="#d1d1d1"
     inkscape:document-units="mm" />
  <defs
     id="defs1" />
  <g
     inkscape:label="Calque 1"
     inkscape:groupmode="layer"
     id="layer1">
    <g
       id="g54"
       transform="matrix(1.0583333,0,0,1.0583333,-90.409521,-131.41733)"
       inkscape:label="SendersOfIt">
      <rect
         style="display:inline;opacity:0;fill:#ffffff;stroke:none;stroke-width:0.502999;stroke-linecap:round;stroke-linejoin:round;stroke-dashoffset:3.2519"
         id="rect52"
         width="10"
         height="10"
         x="85.426323"
         y="124.17385"
         inkscape:label="Size" />
      <path
         id="path52"
         style="display:inline;fill:#969696;fill-opacity:1;stroke-width:0.553184;stroke-linecap:round;stroke-linejoin:round;stroke-dashoffset:3.2519"
         d="m 87.7,124.9 v 1.2 h 5 v 0.56798 h 1.2 V 124.9 Z"
         sodipodi:nodetypes="ccccccc"
         inkscape:label="BackFile" />
      <path
         id="path53"
         style="display:inline;fill:#5e6365;fill-opacity:1;stroke-width:0.542431;stroke-linecap:round;stroke-linejoin:round;stroke-dashoffset:3.2519"
         inkscape:label="FrontFile"
         d="m 86.399752,126.59991 v 6.09988 h 0.710724 c 0.05266,-0.32859 0.249373,-0.5344 0.489203,-0.65181 v -0.2887 c -0.281614,-0.21384 -0.504666,-0.55197 -0.504017,-1.09106 5.61e-4,-0.45958 0.133665,-0.96914 0.504017,-1.32292 v -1.54547 h 2.800518 v 1.10037 h 1.199927 v -2.30029 z m 1.700155,2.30029 v 0.13194 c 0.21164,-0.0813 0.463294,-0.12894 0.760677,-0.13194 z m 0.785482,0 c 0.26289,8.2e-4 0.686772,0.0807 1.01458,0.28353 v -0.28353 z" />
      <path
         id="path54"
         style="display:inline;opacity:1;fill:#1079c0;fill-opacity:1;stroke-width:0.583687;stroke-linecap:round;stroke-linejoin:round;stroke-dashoffset:3.2519"
         inkscape:label="Blocs"
         d="m 92.700143,127.10013 v 1.79972 h 1.799718 v -1.79972 z m -2.30029,2.29961 v 1.29742 c 0.248734,-0.002 0.503482,-0.002 0.732427,0.003 0.08918,0.002 0.16718,0.0208 0.236678,0.05 0.07084,-0.0309 0.145996,-0.0496 0.223242,-0.05 0.282528,-0.001 0.454797,0.18321 0.557761,0.34968 0.0149,-0.0268 0.03129,-0.0534 0.04995,-0.0792 v -1.57027 z m 2.30029,3.4e-4 v 1.30121 c 0.0066,-2.1e-4 0.01258,-0.001 0.01929,-0.001 0.137369,-6.6e-4 0.245939,0.026 0.333829,0.0686 0.05229,-0.0399 0.09709,-0.0686 0.120234,-0.0686 h 0.858173 c 0.18339,0 0.338644,0.0757 0.468533,0.1981 l -3.44e-4,-1.49793 z" />
      <path
         id="path2-1"
         style="display:inline;fill:#b58240;fill-opacity:1;stroke-width:0.139155"
         inkscape:label="Letters"
         d="m 92.962729,143.12097 c -1.012342,0 -1.88774,0.72713 -1.88774,1.89704 0,1.93851 2.541964,1.3453 2.541964,2.33113 0,0.40964 -0.273936,0.71882 -0.77618,0.71882 -0.494879,0 -0.920817,-0.32608 -1.278475,-0.32608 -0.311999,0 -0.510047,0.26741 -0.510047,0.59324 0,0.78559 1.263302,0.93586 1.8495,0.93586 1.050387,0 1.948718,-0.74341 1.948718,-1.93838 0,-2.15573 -2.54248,-1.60445 -2.54248,-2.46497 0,-0.35116 0.296514,-0.54312 0.623734,-0.54312 0.456827,0 0.700857,0.25064 1.012858,0.25064 0.311754,0 0.50953,-0.29222 0.50953,-0.61805 0,-0.66 -1.06524,-0.83585 -1.491382,-0.83613 z m 2.32854,2.70009 c -0.226456,0 -0.332796,0.17948 -0.332796,0.42168 v 2.66496 c 0,0.21799 0.140661,0.36328 0.328662,0.36328 h 1.063603 c 0.200821,0 0.304,-0.16949 0.304,-0.33434 0,-0.16955 -0.09891,-0.33435 -0.304,-0.33435 H 95.59926 v -0.73639 h 0.700733 c 0.205225,0 0.312126,-0.16964 0.312126,-0.33435 0,-0.1697 -0.102625,-0.33434 -0.312126,-0.33434 H 95.59926 v -0.70745 h 0.751893 c 0.200955,0 0.303585,-0.16965 0.303585,-0.33435 0,-0.16969 -0.09891,-0.33435 -0.304,-0.33435 z m 1.749764,0 c -0.159179,0 -0.277503,0.13333 -0.277503,0.37156 l -5.16e-4,2.70681 c 0,0.23839 0.11832,0.37207 0.277502,0.37207 0.159181,0 0.278019,-0.13368 0.278019,-0.37207 v -1.77715 h 0.0072 l 1.173055,1.99212 c 0.05191,0.0856 0.162891,0.1571 0.233061,0.1571 0.159183,0 0.277502,-0.13368 0.277502,-0.37207 v -2.70681 c 0,-0.23823 -0.118319,-0.37156 -0.277502,-0.37156 -0.158947,0 -0.277503,0.13333 -0.277503,0.37156 v 1.80196 h -0.0072 l -1.173055,-2.01642 c -0.04821,-0.0857 -0.162781,-0.1571 -0.23306,-0.1571 z m 2.371948,0 c -0.172851,0 -0.295589,0.1501 -0.295589,0.37311 v 2.71353 c 0,0.27605 0.176582,0.36328 0.303341,0.36328 h 0.668177 c 0.79155,0 1.31413,-0.65885 1.31413,-1.67638 0,-1.07567 -0.49171,-1.77354 -1.35237,-1.77354 z m 0.280603,0.6687 h 0.349846 c 0.53033,0 0.76068,0.45047 0.76068,1.07073 0,0.58151 -0.22681,1.0418 -0.72244,1.0418 h -0.388086 z"
         transform="matrix(0.66666667,0,0,0.66666667,26.898178,33.985754)"
         sodipodi:nodetypes="cssssssssssscsssssssccsssccsssssccsscccssssscccssssssssscssscc" />
    </g>
  </g>
</svg>
